<svg xmlns="http://www.w3.org/2000/svg" xmlns:xlink="http://www.w3.org/1999/xlink" width="1500" zoomAndPan="magnify" viewBox="0 0 1125 1124.99995" height="1500" preserveAspectRatio="xMidYMid meet" version="1.0"><defs><g/></defs><rect x="-112.5" width="1350" fill="#ffffff" y="-112.499995" height="1349.99994" fill-opacity="1"/><rect x="-112.5" width="1350" fill="#ffffff" y="-112.499995" height="1349.99994" fill-opacity="1"/><g fill="#000000" fill-opacity="1"><g transform="translate(52.462736, 863.249906)"><g><path d="M 601.03125 -513.296875 L 601.03125 -498.796875 C 584.59375 -498.316406 572.144531 -496.503906 563.6875 -493.359375 C 555.226562 -490.222656 549.546875 -484.425781 546.640625 -475.96875 C 543.742188 -467.507812 542.296875 -454.335938 542.296875 -436.453125 L 542.296875 -76.84375 C 542.296875 -59.445312 543.742188 -46.398438 546.640625 -37.703125 C 549.546875 -29.003906 555.226562 -23.203125 563.6875 -20.296875 C 572.144531 -17.398438 584.59375 -15.46875 601.03125 -14.5 L 601.03125 0 C 589.90625 -0.96875 576.003906 -1.570312 559.328125 -1.8125 C 542.660156 -2.050781 525.867188 -2.171875 508.953125 -2.171875 C 490.097656 -2.171875 472.453125 -2.050781 456.015625 -1.8125 C 439.585938 -1.570312 426.300781 -0.96875 416.15625 0 L 416.15625 -14.5 C 432.582031 -15.46875 445.023438 -17.398438 453.484375 -20.296875 C 461.941406 -23.203125 467.617188 -29.003906 470.515625 -37.703125 C 473.421875 -46.398438 474.875 -59.445312 474.875 -76.84375 L 474.875 -475.59375 L 477.78125 -473.421875 L 300.15625 3.625 L 288.546875 3.625 L 105.84375 -466.90625 L 105.84375 -84.09375 C 105.84375 -66.695312 107.414062 -53.046875 110.5625 -43.140625 C 113.707031 -33.234375 119.988281 -26.222656 129.40625 -22.109375 C 138.832031 -18.003906 152.972656 -15.46875 171.828125 -14.5 L 171.828125 0 C 163.128906 -0.96875 151.769531 -1.570312 137.75 -1.8125 C 123.726562 -2.050781 110.4375 -2.171875 97.875 -2.171875 C 85.789062 -2.171875 73.585938 -2.050781 61.265625 -1.8125 C 48.941406 -1.570312 38.671875 -0.96875 30.453125 0 L 30.453125 -14.5 C 46.878906 -15.46875 59.320312 -18.003906 67.78125 -22.109375 C 76.238281 -26.222656 81.914062 -33.234375 84.8125 -43.140625 C 87.71875 -53.046875 89.171875 -66.695312 89.171875 -84.09375 L 89.171875 -436.453125 C 89.171875 -454.335938 87.71875 -467.507812 84.8125 -475.96875 C 81.914062 -484.425781 76.238281 -490.222656 67.78125 -493.359375 C 59.320312 -496.503906 46.878906 -498.316406 30.453125 -498.796875 L 30.453125 -513.296875 C 38.671875 -512.816406 48.941406 -512.332031 61.265625 -511.84375 C 73.585938 -511.363281 85.789062 -511.125 97.875 -511.125 C 108.507812 -511.125 119.503906 -511.363281 130.859375 -511.84375 C 142.222656 -512.332031 151.769531 -512.816406 159.5 -513.296875 L 324.078125 -79.75 L 311.75 -73.953125 L 474.875 -511.125 C 480.675781 -511.125 486.351562 -511.125 491.90625 -511.125 C 497.46875 -511.125 503.148438 -511.125 508.953125 -511.125 C 525.867188 -511.125 542.660156 -511.363281 559.328125 -511.84375 C 576.003906 -512.332031 589.90625 -512.816406 601.03125 -513.296875 Z M 601.03125 -513.296875 "/></g></g></g><g fill="#000000" fill-opacity="1"><g transform="translate(620.85777, 863.249906)"><g><path d="M 30.453125 -513.296875 C 40.597656 -512.816406 53.882812 -512.332031 70.3125 -511.84375 C 86.75 -511.363281 102.945312 -511.125 118.90625 -511.125 C 141.613281 -511.125 163.359375 -511.363281 184.140625 -511.84375 C 204.929688 -512.332031 219.675781 -512.578125 228.375 -512.578125 C 279.125 -512.578125 317.304688 -501.941406 342.921875 -480.671875 C 368.535156 -459.410156 381.34375 -432.101562 381.34375 -398.75 C 381.34375 -381.832031 377.835938 -365.273438 370.828125 -349.078125 C 363.828125 -332.890625 352.226562 -318.148438 336.03125 -304.859375 C 319.84375 -291.566406 298.21875 -280.8125 271.15625 -272.59375 L 271.15625 -271.15625 C 309.332031 -266.320312 339.175781 -257.257812 360.6875 -243.96875 C 382.195312 -230.675781 397.300781 -215.085938 406 -197.203125 C 414.695312 -179.316406 419.046875 -160.46875 419.046875 -140.65625 C 419.046875 -113.101562 412.15625 -88.8125 398.375 -67.78125 C 384.601562 -46.757812 364.664062 -30.207031 338.5625 -18.125 C 312.46875 -6.039062 281.296875 0 245.046875 0 C 234.410156 0 218.457031 -0.359375 197.1875 -1.078125 C 175.925781 -1.804688 150.3125 -2.171875 120.34375 -2.171875 C 103.425781 -2.171875 86.75 -2.050781 70.3125 -1.8125 C 53.882812 -1.570312 40.597656 -0.96875 30.453125 0 L 30.453125 -14.5 C 46.878906 -15.46875 59.320312 -17.398438 67.78125 -20.296875 C 76.238281 -23.203125 81.914062 -29.003906 84.8125 -37.703125 C 87.71875 -46.398438 89.171875 -59.445312 89.171875 -76.84375 L 89.171875 -436.453125 C 89.171875 -454.335938 87.71875 -467.507812 84.8125 -475.96875 C 81.914062 -484.425781 76.238281 -490.222656 67.78125 -493.359375 C 59.320312 -496.503906 46.878906 -498.316406 30.453125 -498.796875 Z M 210.25 -498.796875 C 188.019531 -498.796875 173.519531 -494.6875 166.75 -486.46875 C 159.976562 -478.257812 156.59375 -461.585938 156.59375 -436.453125 L 156.59375 -76.84375 C 156.59375 -59.925781 158.039062 -47.117188 160.9375 -38.421875 C 163.84375 -29.722656 169.160156 -23.921875 176.890625 -21.015625 C 184.628906 -18.117188 195.988281 -16.671875 210.96875 -16.671875 C 258.34375 -16.671875 292.78125 -27.664062 314.28125 -49.65625 C 335.789062 -71.65625 346.546875 -102.953125 346.546875 -143.546875 C 346.546875 -180.765625 336.515625 -209.523438 316.453125 -229.828125 C 296.398438 -250.128906 263.414062 -260.28125 217.5 -260.28125 L 142.828125 -260.28125 C 142.828125 -260.28125 142.828125 -262.332031 142.828125 -266.4375 C 142.828125 -270.539062 142.828125 -272.59375 142.828125 -272.59375 L 205.171875 -272.59375 C 233.691406 -272.59375 255.679688 -278.03125 271.140625 -288.90625 C 286.609375 -299.78125 297.242188 -314.28125 303.046875 -332.40625 C 308.847656 -350.53125 311.75 -369.988281 311.75 -390.78125 C 311.75 -426.539062 303.894531 -453.484375 288.1875 -471.609375 C 272.476562 -489.734375 246.5 -498.796875 210.25 -498.796875 Z M 210.25 -498.796875 "/></g></g></g></svg>